Patient4_TMGait_0pt4_03_left_07_GRF.mot
version=1
nRows=39
nColumns=19
inDegrees=no
endheader
time	F1x	F1y	F1z	M1x	M1y	M1z	F2x	F2y	F2z	M2x	M2y	M2z	EC1x	EC1y	EC1z	EC2x	EC2y	EC2z
8.75	-12.1937	21.9914	2.4247	-6.8249	-4.6732	9.0489	-27.7024	764.2578	-80.0673	281.4282	91.4221	818.411	-0.0592	0.0182	-0.0073	-0.0462	0.0165	0.9585
8.7631	-8.3858	15.5949	1.6102	-4.8535	-3.2033	7.0417	-23.6545	756.1343	-77.4026	277.6044	88.3059	807.7613	-0.0592	0.0182	-0.0073	-0.0462	0.0165	0.9585
8.7761	-5.1365	10.1896	0.94066	-3.1927	-1.9693	5.3361	-19.7367	746.7949	-74.6346	273.4815	84.8706	795.4015	-0.0592	0.0182	-0.0073	-0.0462	0.0165	0.9585
8.7892	-2.6314	6.0802	0.4626	-1.9371	-1.0533	4.0246	-16.1072	737.5311	-71.9823	269.5788	81.3423	782.7395	-0.0592	0.0182	-0.0073	-0.0462	0.0165	0.9585
8.8023	-0.89995	3.2553	0.14565	-1.0821	-0.43443	3.1317	-12.8071	729.7835	-69.6296	266.4202	77.9406	771.3409	-0.0592	0.0182	-0.0073	-0.0462	0.0165	0.9585
8.8154	0.17829	1.5119	-0.020016	-0.56226	-0.078194	2.5773	-9.8126	724.7639	-67.6832	264.4209	74.8186	762.5166	-0.0592	0.0182	-0.0073	-0.0462	0.0165	0.9585
8.8284	0.72269	0.58021	-0.085409	-0.289	0.084555	2.2719	-7.0862	723.2705	-66.1734	263.8358	72.0576	757.1439	-0.0592	0.0182	-0.0073	-0.0462	0.0165	0.9585
8.8415	0.88221	0.15094	-0.069798	-0.16167	0.097238	2.0629	-4.568	725.5822	-65.0708	264.7283	69.6699	755.5574	-0.0592	0.0182	-0.0073	-0.0462	0.0165	0.9585
8.8546	0.7848	-0.060966	-0.01038	-0.0886	0.017044	1.7956	-2.2154	731.3605	-64.329	266.936	67.6459	757.4586	-0.0592	0.0182	-0.0073	-0.0462	0.0165	0.9585
8.8676	0.52192	-0.30995	0.081768	0.013959	-0.13213	1.319	-0.010197	739.651	-63.8772	270.0789	65.9467	761.9216	-0.0592	0.0182	-0.0073	-0.0462	0.0165	0.9585
8.8807	0.18717	-0.81587	0.17989	0.21649	-0.31055	0.46388	2.0467	749.0861	-63.6518	273.6307	64.5325	767.6156	-0.0592	0.0182	-0.0073	-0.0462	0.0165	0.9585
8.8938	-0.17377	-1.7332	0.27602	0.5713	-0.50261	-0.87106	3.9495	758.1438	-63.5904	277.0159	63.3569	773.0635	-0.0592	0.0182	-0.0073	-0.0462	0.0165	0.9585
8.9069	-0.4797	-3.1594	0.34535	1.1094	-0.66097	-2.7755	5.694	765.4193	-63.6318	279.7103	62.3663	776.8985	-0.0592	0.0182	-0.0073	-0.0462	0.0165	0.9585
8.9199	-0.67466	-5.0662	0.37339	1.8197	-0.7444	-5.1851	7.289	769.8883	-63.7103	281.3343	61.4951	778.1225	-0.0592	0.0182	-0.0073	-0.0462	0.0165	0.9585
8.933	-0.65206	-7.2658	0.32364	2.631	-0.67024	-7.8906	8.7706	770.9797	-63.7847	281.6789	60.693	776.1691	-0.0592	0.0182	-0.0073	-0.0462	0.0165	0.9585
8.9461	-0.29322	-9.3252	0.16535	3.3845	-0.35198	-10.402	10.1575	768.5416	-63.8412	280.6874	59.937	770.8901	-0.0592	0.0182	-0.0073	-0.0462	0.0165	0.9585
8.9591	0.55322	-10.5047	-0.16173	3.8076	0.33677	-11.8878	11.5036	762.7763	-63.9015	278.4296	59.2251	762.4662	-0.0592	0.0182	-0.0073	-0.0462	0.0165	0.9585
8.9722	2.0505	-9.6952	-0.70296	3.4899	1.513	-11.0886	12.8578	754.1845	-64.0035	275.0793	58.5649	751.3821	-0.0592	0.0182	-0.0073	-0.0462	0.0165	0.9585
8.9853	4.3194	-5.3529	-1.5109	1.8641	3.2838	-6.2371	14.2811	743.4373	-64.1743	270.8743	57.9483	738.2859	-0.0592	0.0182	-0.0073	-0.0462	0.0165	0.9585
8.9984	7.4379	4.4326	-2.6001	-1.7698	5.6859	4.8414	15.8328	731.2756	-64.4132	266.0802	57.3428	723.9023	-0.0592	0.0182	-0.0073	-0.0462	0.0165	0.9585
9.0114	11.2938	21.7899	-3.9387	-8.1856	8.6278	24.6033	17.5464	718.3384	-64.6787	260.9279	56.6907	708.8706	-0.0592	0.0182	-0.0073	-0.0462	0.0165	0.9585
9.0245	15.5213	48.6776	-5.386	-18.0912	11.801	55.3145	19.4193	704.9487	-64.88	255.5433	55.9058	693.5318	-0.0592	0.0182	-0.0073	-0.0462	0.0165	0.9585
9.0376	19.3309	86.2491	-6.6564	-31.8898	14.5763	98.3507	21.3917	690.9597	-64.8718	249.8913	54.8742	677.7959	-0.0592	0.0182	-0.0073	-0.0462	0.0165	0.9585
9.0506	21.4044	133.8684	-7.2629	-49.3224	15.9063	153.0646	23.3794	675.6581	-64.4606	243.7453	53.4539	661.0218	-0.0592	0.0182	-0.0073	-0.0462	0.0165	0.9585
9.0637	20.1969	188.2406	-6.5749	-69.1415	14.5106	215.7774	25.2235	657.8623	-63.4386	236.7191	51.5152	642.1254	-0.0592	0.0182	-0.0073	-0.0462	0.0165	0.9585
9.0768	15.1227	243.0829	-3.847	-88.9973	9.3458	279.3291	26.7693	636.2162	-61.6164	228.3709	48.9516	619.8249	-0.0592	0.0182	-0.0073	-0.0462	0.0165	0.9585
9.0899	7.7987	291.1767	1.4248	-106.2389	0.52221	335.311	27.8754	609.6135	-58.9025	218.3459	45.747	593.0536	-0.0592	0.0182	-0.0073	-0.0462	0.0165	0.9585
9.1029	0.07406	328.9599	8.2169	-119.6065	-10.098	379.3413	28.4504	577.585	-55.3712	206.4943	42.0188	561.3275	-0.0592	0.0182	-0.0073	-0.0462	0.0165	0.9585
9.116	-6.9719	357.7142	15.5594	-129.6154	-20.9808	412.6771	28.4742	540.2723	-51.3047	192.86	38.0421	524.726	-0.0592	0.0182	-0.0073	-0.0462	0.0165	0.9585
9.1291	-12.9657	381.5008	22.2565	-137.8138	-30.6671	439.936	27.9706	498.2311	-46.9676	177.6188	34.0537	483.7322	-0.0592	0.0182	-0.0073	-0.0462	0.0165	0.9585
9.1421	-17.8775	404.7003	27.856	-145.8246	-38.6164	466.1343	26.9953	452.1868	-42.4888	161.0142	30.1541	438.978	-0.0592	0.0182	-0.0073	-0.0462	0.0165	0.9585
9.1552	-21.7584	430.4682	32.0378	-154.7983	-44.5287	494.8321	25.5164	402.9982	-37.8191	143.3443	26.3008	391.2604	-0.0592	0.0182	-0.0073	-0.0462	0.0165	0.9585
9.1683	-24.6091	460.36	35.2335	-165.2481	-48.8801	527.7989	23.5069	351.589	-32.9045	124.9367	22.4501	341.4356	-0.0592	0.0182	-0.0073	-0.0462	0.0165	0.9585
9.1814	-26.3767	494.8321	37.9728	-177.2572	-52.2789	565.4848	20.8753	299.1124	-27.7578	106.1964	18.632	290.6202	-0.0592	0.0182	-0.0073	-0.0462	0.0165	0.9585
9.1944	-27.1885	533.3978	41.0776	-190.5448	-55.6835	607.3967	17.5836	246.9738	-22.5358	87.6181	14.9878	240.169	-0.0592	0.0182	-0.0073	-0.0462	0.0165	0.9585
9.2075	-27.2641	574.617	45.0504	-204.5266	-59.7605	651.9233	13.7329	196.8933	-17.4696	69.8034	11.6833	191.7331	-0.0592	0.0182	-0.0073	-0.0462	0.0165	0.9585
9.2206	-26.9491	616.7092	50.2317	-218.5253	-65.002	697.1403	9.6008	150.7194	-12.8325	53.396	8.863	147.0792	-0.0592	0.0182	-0.0073	-0.0462	0.0165	0.9585
9.2336	-26.4003	657.9873	56.2921	-231.9734	-71.1251	741.1463	5.6267	110.0586	-8.8333	38.9607	6.56	107.7141	-0.0592	0.0182	-0.0073	-0.0462	0.0165	0.9585
9.2467	-25.706	696.9618	62.7271	-244.4121	-77.6042	782.3074	2.2074	75.9854	-5.6059	26.8704	4.7544	74.6775	-0.0592	0.0182	-0.0073	-0.0462	0.0165	0.9585
